<mxfile host="app.diagrams.net" modified="2022-05-05T01:47:33.387Z" agent="5.0 (Windows NT 10.0; Win64; x64) AppleWebKit/537.36 (KHTML, like Gecko) Chrome/101.0.4951.41 Safari/537.36 Edg/101.0.1210.32" etag="y2pTvE4hQBQKZMk0DmNm" version="18.0.0" type="github">
  <diagram id="R11XRdNVm5lGKCMaSMpF" name="第 1 页">
    <mxGraphModel dx="1102" dy="582" grid="1" gridSize="10" guides="1" tooltips="1" connect="1" arrows="1" fold="1" page="1" pageScale="1" pageWidth="827" pageHeight="1169" math="0" shadow="0">
      <root>
        <mxCell id="0" />
        <mxCell id="1" parent="0" />
        <mxCell id="Irh74TFMI3eNS175melh-1" value="&lt;font style=&quot;font-size: 15px;&quot;&gt;云服务器主机&lt;/font&gt;" style="ellipse;shape=cloud;whiteSpace=wrap;html=1;" vertex="1" parent="1">
          <mxGeometry x="321" y="130" width="140" height="80" as="geometry" />
        </mxCell>
        <mxCell id="Irh74TFMI3eNS175melh-2" value="树&lt;br style=&quot;font-size: 16px;&quot;&gt;莓&lt;br style=&quot;font-size: 16px;&quot;&gt;派" style="rounded=0;whiteSpace=wrap;html=1;fontSize=16;" vertex="1" parent="1">
          <mxGeometry x="200" y="230" width="70" height="150" as="geometry" />
        </mxCell>
        <mxCell id="Irh74TFMI3eNS175melh-3" value="PC" style="rounded=0;whiteSpace=wrap;html=1;fontSize=16;" vertex="1" parent="1">
          <mxGeometry x="520" y="230" width="70" height="150" as="geometry" />
        </mxCell>
        <mxCell id="Irh74TFMI3eNS175melh-4" value="用户" style="shape=umlActor;verticalLabelPosition=bottom;verticalAlign=top;html=1;outlineConnect=0;fontSize=15;" vertex="1" parent="1">
          <mxGeometry x="749" y="275" width="30" height="60" as="geometry" />
        </mxCell>
        <mxCell id="Irh74TFMI3eNS175melh-5" value="内网穿透，实现跨局域网socket通信" style="text;html=1;align=center;verticalAlign=middle;resizable=0;points=[];autosize=1;strokeColor=none;fillColor=none;fontSize=15;" vertex="1" parent="1">
          <mxGeometry x="275" y="110" width="250" height="20" as="geometry" />
        </mxCell>
        <mxCell id="Irh74TFMI3eNS175melh-6" value="电&lt;br&gt;机" style="rounded=0;whiteSpace=wrap;html=1;fontSize=15;" vertex="1" parent="1">
          <mxGeometry x="70" y="260" width="60" height="90" as="geometry" />
        </mxCell>
        <mxCell id="Irh74TFMI3eNS175melh-7" value="" style="endArrow=classic;html=1;rounded=0;fontSize=15;entryX=1;entryY=0.5;entryDx=0;entryDy=0;exitX=0;exitY=0.5;exitDx=0;exitDy=0;" edge="1" parent="1" source="Irh74TFMI3eNS175melh-2" target="Irh74TFMI3eNS175melh-6">
          <mxGeometry width="50" height="50" relative="1" as="geometry">
            <mxPoint x="160" y="360" as="sourcePoint" />
            <mxPoint x="150" y="300" as="targetPoint" />
          </mxGeometry>
        </mxCell>
        <mxCell id="Irh74TFMI3eNS175melh-8" value="&lt;blockquote style=&quot;margin: 0 0 0 40px; border: none; padding: 0px;&quot;&gt;驱动&lt;/blockquote&gt;" style="text;html=1;align=center;verticalAlign=middle;resizable=0;points=[];autosize=1;strokeColor=none;fillColor=none;fontSize=15;" vertex="1" parent="1">
          <mxGeometry x="100" y="280" width="90" height="20" as="geometry" />
        </mxCell>
        <mxCell id="Irh74TFMI3eNS175melh-9" value="" style="endArrow=classic;html=1;rounded=0;fontSize=15;exitX=0.8;exitY=0.8;exitDx=0;exitDy=0;exitPerimeter=0;entryX=0;entryY=0.25;entryDx=0;entryDy=0;" edge="1" parent="1" source="Irh74TFMI3eNS175melh-1" target="Irh74TFMI3eNS175melh-3">
          <mxGeometry width="50" height="50" relative="1" as="geometry">
            <mxPoint x="420" y="340" as="sourcePoint" />
            <mxPoint x="470" y="290" as="targetPoint" />
          </mxGeometry>
        </mxCell>
        <mxCell id="Irh74TFMI3eNS175melh-10" value="图片" style="edgeLabel;html=1;align=center;verticalAlign=middle;resizable=0;points=[];fontSize=15;" vertex="1" connectable="0" parent="Irh74TFMI3eNS175melh-9">
          <mxGeometry x="0.1756" y="3" relative="1" as="geometry">
            <mxPoint as="offset" />
          </mxGeometry>
        </mxCell>
        <mxCell id="Irh74TFMI3eNS175melh-11" value="" style="endArrow=classic;html=1;rounded=0;fontSize=15;entryX=0.55;entryY=0.95;entryDx=0;entryDy=0;entryPerimeter=0;exitX=0;exitY=0.5;exitDx=0;exitDy=0;" edge="1" parent="1" source="Irh74TFMI3eNS175melh-3" target="Irh74TFMI3eNS175melh-1">
          <mxGeometry width="50" height="50" relative="1" as="geometry">
            <mxPoint x="400" y="360" as="sourcePoint" />
            <mxPoint x="450" y="310" as="targetPoint" />
          </mxGeometry>
        </mxCell>
        <mxCell id="Irh74TFMI3eNS175melh-12" value="移动指令" style="edgeLabel;html=1;align=center;verticalAlign=middle;resizable=0;points=[];fontSize=15;" vertex="1" connectable="0" parent="Irh74TFMI3eNS175melh-11">
          <mxGeometry x="-0.5789" y="4" relative="1" as="geometry">
            <mxPoint x="-42" y="-27" as="offset" />
          </mxGeometry>
        </mxCell>
        <mxCell id="Irh74TFMI3eNS175melh-13" value="" style="endArrow=classic;html=1;rounded=0;fontSize=15;exitX=0.55;exitY=0.95;exitDx=0;exitDy=0;exitPerimeter=0;entryX=1;entryY=0.5;entryDx=0;entryDy=0;" edge="1" parent="1" source="Irh74TFMI3eNS175melh-1" target="Irh74TFMI3eNS175melh-2">
          <mxGeometry width="50" height="50" relative="1" as="geometry">
            <mxPoint x="350" y="350" as="sourcePoint" />
            <mxPoint x="400" y="300" as="targetPoint" />
          </mxGeometry>
        </mxCell>
        <mxCell id="Irh74TFMI3eNS175melh-14" value="移动指令" style="edgeLabel;html=1;align=center;verticalAlign=middle;resizable=0;points=[];fontSize=15;" vertex="1" connectable="0" parent="Irh74TFMI3eNS175melh-13">
          <mxGeometry x="0.1892" relative="1" as="geometry">
            <mxPoint as="offset" />
          </mxGeometry>
        </mxCell>
        <mxCell id="Irh74TFMI3eNS175melh-15" value="" style="endArrow=classic;html=1;rounded=0;fontSize=15;exitX=1;exitY=0.25;exitDx=0;exitDy=0;entryX=0.31;entryY=0.8;entryDx=0;entryDy=0;entryPerimeter=0;" edge="1" parent="1" source="Irh74TFMI3eNS175melh-2" target="Irh74TFMI3eNS175melh-1">
          <mxGeometry width="50" height="50" relative="1" as="geometry">
            <mxPoint x="260" y="210" as="sourcePoint" />
            <mxPoint x="310" y="160" as="targetPoint" />
            <Array as="points">
              <mxPoint x="320" y="230" />
            </Array>
          </mxGeometry>
        </mxCell>
        <mxCell id="Irh74TFMI3eNS175melh-16" value="图片" style="edgeLabel;html=1;align=center;verticalAlign=middle;resizable=0;points=[];fontSize=15;" vertex="1" connectable="0" parent="Irh74TFMI3eNS175melh-15">
          <mxGeometry x="-0.7209" y="1" relative="1" as="geometry">
            <mxPoint x="26" y="-25" as="offset" />
          </mxGeometry>
        </mxCell>
        <mxCell id="Irh74TFMI3eNS175melh-17" value="" style="endArrow=classic;html=1;rounded=0;fontSize=15;exitX=1;exitY=0;exitDx=0;exitDy=0;entryX=0.16;entryY=0.55;entryDx=0;entryDy=0;entryPerimeter=0;" edge="1" parent="1" source="Irh74TFMI3eNS175melh-2" target="Irh74TFMI3eNS175melh-1">
          <mxGeometry width="50" height="50" relative="1" as="geometry">
            <mxPoint x="280" y="220" as="sourcePoint" />
            <mxPoint x="330" y="170" as="targetPoint" />
          </mxGeometry>
        </mxCell>
        <mxCell id="Irh74TFMI3eNS175melh-18" value="实时图传" style="edgeLabel;html=1;align=center;verticalAlign=middle;resizable=0;points=[];fontSize=15;" vertex="1" connectable="0" parent="Irh74TFMI3eNS175melh-17">
          <mxGeometry x="-0.5233" y="1" relative="1" as="geometry">
            <mxPoint x="13" y="-16" as="offset" />
          </mxGeometry>
        </mxCell>
        <mxCell id="Irh74TFMI3eNS175melh-19" value="" style="endArrow=classic;html=1;rounded=0;fontSize=15;exitX=0.875;exitY=0.5;exitDx=0;exitDy=0;exitPerimeter=0;entryX=0;entryY=0;entryDx=0;entryDy=0;" edge="1" parent="1" source="Irh74TFMI3eNS175melh-1" target="Irh74TFMI3eNS175melh-3">
          <mxGeometry width="50" height="50" relative="1" as="geometry">
            <mxPoint x="470" y="190" as="sourcePoint" />
            <mxPoint x="510" y="220" as="targetPoint" />
          </mxGeometry>
        </mxCell>
        <mxCell id="Irh74TFMI3eNS175melh-20" value="实时图传" style="edgeLabel;html=1;align=center;verticalAlign=middle;resizable=0;points=[];fontSize=15;" vertex="1" connectable="0" parent="Irh74TFMI3eNS175melh-19">
          <mxGeometry x="0.621" y="1" relative="1" as="geometry">
            <mxPoint x="-6" y="-18" as="offset" />
          </mxGeometry>
        </mxCell>
        <mxCell id="Irh74TFMI3eNS175melh-21" value="" style="endArrow=classic;startArrow=classic;html=1;rounded=0;fontSize=15;" edge="1" parent="1" source="Irh74TFMI3eNS175melh-3" target="Irh74TFMI3eNS175melh-4">
          <mxGeometry width="50" height="50" relative="1" as="geometry">
            <mxPoint x="590" y="355" as="sourcePoint" />
            <mxPoint x="660.7106781186548" y="305" as="targetPoint" />
          </mxGeometry>
        </mxCell>
        <mxCell id="Irh74TFMI3eNS175melh-22" value="&lt;span style=&quot;background-color: rgb(248, 249, 250);&quot;&gt;使用Qt人机交互&lt;/span&gt;" style="edgeLabel;html=1;align=center;verticalAlign=middle;resizable=0;points=[];fontSize=15;" vertex="1" connectable="0" parent="Irh74TFMI3eNS175melh-21">
          <mxGeometry x="-0.2453" y="1" relative="1" as="geometry">
            <mxPoint x="20" y="1" as="offset" />
          </mxGeometry>
        </mxCell>
      </root>
    </mxGraphModel>
  </diagram>
</mxfile>
